<svg width="445" height="122" viewBox="0 0 445 122" fill="none" xmlns="http://www.w3.org/2000/svg">
<path d="M169.162 65.019C171.313 61.775 174.728 60.0963 179.436 59.467C187.006 58.455 194.36 65.531 177.062 66.623C172.25 66.927 169.928 65.8096 169.242 65.3923C169.114 65.315 169.08 65.1443 169.162 65.019ZM393.086 67.0243C395.153 63.7096 398.561 61.771 403.26 61.019C410.801 59.811 417.692 67.1336 400.956 68.5323C396.126 68.9363 393.832 67.8003 393.168 67.383C393.048 67.307 393.01 67.1456 393.086 67.0243ZM428.985 72.043C412.596 82.2563 387.285 84.5976 390.417 73.0003C390.481 72.763 390.729 72.6163 390.968 72.675C392.43 73.035 397.522 74.135 403.581 73.6403C426.326 71.7816 420.758 54.091 403.021 56.015C392.445 57.1616 382.988 65.559 383.417 74.6336C383.445 75.207 383.154 75.7603 382.632 75.999C358.141 87.2163 373.057 38.527 332.05 68.643C331.857 68.7843 331.608 68.5643 331.734 68.3616C335.721 62.031 336.574 58.6763 330.836 57.5683C327.845 56.9896 324.325 61.7083 321.873 67.3016C319.493 72.7323 314.714 76.8696 308.876 77.8923C303.693 78.8016 300.358 77.199 301.11 73.3363C302.206 67.7176 309.38 64.447 311.009 60.6096C312.212 57.7736 311.241 54.4963 308.2 54.1656C306.085 53.9363 303.582 55.6963 301.377 58.4496C296.658 64.335 292.55 66.543 285.717 68.5296C285.55 68.579 285.413 68.3883 285.52 68.251C302.43 46.6243 313.86 19.879 316.625 9.12297C317.513 5.66831 313.474 3.88964 309.986 5.78164C302.457 9.09364 305.117 18.8336 291.293 45.7256C279.977 67.759 267.028 81.907 262.242 79.7256C256.216 76.979 265.05 48.951 267.148 39.8083C268.452 34.131 258.437 32.827 252.997 43.9976C237.942 74.9083 228.006 82.6856 222.549 81.3843C217.842 80.263 218.512 71.579 221.964 60.7936C233.88 23.099 250.842 16.4576 241.281 10.6656C234.448 6.52698 226.249 25.9576 221.125 38.991C218.266 46.2656 214.293 60.7563 213.048 65.3856C212.781 66.3776 212.156 67.2283 211.305 67.803C195.505 78.4736 160.834 84.575 166.532 70.4323C166.556 70.4203 166.572 70.4123 166.596 70.399C167.146 70.563 172.71 72.179 179.554 71.7976C202.341 70.5283 196.449 52.6136 179.452 54.163C169.398 55.079 162.34 61.643 160.022 68.4603C159.654 69.543 158.893 70.4443 157.874 70.963C154.266 72.7936 147.285 75.6283 138.405 75.8416C138.004 75.851 138.084 75.5816 138.378 75.4803C155.029 69.7843 141.885 41.1723 122.402 58.3576C122.109 58.6163 121.644 58.395 121.69 58.007C121.934 55.9656 121.948 51.995 118.361 51.963C114.193 51.9243 113.456 58.2136 113.446 62.595C113.441 65.5576 112.305 68.4216 110.226 70.5336C98.4609 82.4883 94.9116 73.219 91.8409 67.7443C86.2769 57.8243 76.1862 74.4643 66.4209 73.3563C59.6289 72.587 67.9222 57.9483 81.9062 58.507C87.2716 58.7203 88.8662 61.867 91.0249 62.1403C94.8596 62.627 100.752 54.2563 82.3089 52.8816C72.4049 52.1443 64.5849 57.035 60.1449 62.8723C58.6929 64.783 57.0996 66.5803 55.2956 68.163C44.6742 77.487 29.7369 83.2883 18.5809 76.8136C-8.80443 60.9216 33.8422 0.21098 59.3009 7.36831C70.0916 10.4016 62.1262 29.103 49.8756 33.4203C49.4969 33.5483 45.7009 35.023 48.1916 38.7176C50.3769 41.959 55.7996 39.551 57.1676 38.7856C70.4342 33.279 79.4209 6.34831 62.1209 1.32564C26.6222 -8.97969 -22.3791 64.7643 13.5169 84.1363C27.5982 91.7363 43.7289 85.0336 56.0969 76.0443C56.2822 75.9096 56.5302 75.9936 56.6142 76.207C57.4622 78.351 59.3516 79.843 62.4556 80.1256C74.4169 81.2163 80.7582 70.5563 83.6409 70.9856C86.6116 71.427 90.2089 91.0336 110.936 76.6576C111.114 76.5336 111.325 76.731 111.249 76.9536C111.088 77.4283 110.918 77.8936 110.741 78.347C110.626 78.635 110.509 78.9216 110.388 79.2096C105.502 90.8243 95.5476 103.198 94.1302 112.915C92.9396 121.087 98.3036 123.659 101.162 119.692C109.426 108.226 117.741 61.079 131.721 60.0536C141.09 59.3683 143.232 74.991 124.504 73.767C120.46 73.5016 119.728 78.8776 124.72 79.715C138.512 83.4083 151.386 80.011 159.724 76.111C159.877 76.039 160.038 76.1163 160.094 76.2763C164.016 87.6203 188.426 85.607 211.085 74.8043C211.456 74.6283 211.864 74.9256 211.825 75.3336C211.056 83.407 213.606 88.4083 219.088 89.5136C233.184 92.3576 248.65 66.0243 257.018 51.555C257.089 51.4336 257.272 51.5123 257.237 51.6483C255.976 56.6603 254.333 62.7456 253.089 71.3763L253.15 71.3136C252.198 79.787 253.356 87.2416 259.685 89.0296C264.868 90.4936 271.913 84.9456 279.716 75.6056C280.152 75.0843 280.744 74.7203 281.41 74.5843C286.297 73.5843 292.25 72.247 294.822 71.403C293.48 77.487 294.916 83.1136 302.165 83.515C307.573 83.8136 313.216 81.3483 318.052 78.7403C318.408 78.5483 318.842 78.8056 318.838 79.2096C318.808 82.0643 319.661 83.8776 321.821 83.8603C324.27 83.8416 324.766 81.163 327.688 78.1043C336.853 68.5123 351.376 59.9776 358.593 73.675C366.456 88.5963 374.109 86.3523 384.768 80.683C385.1 80.507 385.498 80.6056 385.734 80.899C391.121 87.639 410.421 88.0336 431.55 77.3296C432.972 76.6096 433.725 74.8936 433.104 73.4256C432.398 71.759 430.432 71.1416 428.985 72.043Z" fill="white"/>
<path d="M311.773 46.7067C311.241 49.5934 313.934 51.8147 316.683 52.1267C318.709 52.356 320.802 51.4134 321.334 48.5267C321.866 45.6387 320.061 43.9814 317.891 43.7347C315.286 43.44 312.091 44.9747 311.773 46.7067Z" fill="white"/>
<path d="M438.847 60.4566C436.151 62.2753 433.824 66.9726 435.177 68.8686C436.588 70.8433 439.253 71.4726 443.493 67.6273C447.412 64.0739 442.481 58.0033 438.847 60.4566Z" fill="white"/>
</svg>
