<?xml version="1.0" encoding="UTF-8" standalone="no"?>
<svg
   xmlns:dc="http://purl.org/dc/elements/1.1/"
   xmlns:cc="http://creativecommons.org/ns#"
   xmlns:rdf="http://www.w3.org/1999/02/22-rdf-syntax-ns#"
   xmlns:svg="http://www.w3.org/2000/svg"
   xmlns="http://www.w3.org/2000/svg"
   viewBox="0 0 755.90533 534.53467"
   height="534.53467"
   width="755.90533"
   xml:space="preserve"
   id="svg2"
   version="1.1"><metadata
     id="metadata8"><rdf:RDF><cc:Work
         rdf:about=""><dc:format>image/svg+xml</dc:format><dc:type
           rdf:resource="http://purl.org/dc/dcmitype/StillImage" /></cc:Work></rdf:RDF></metadata><defs
     id="defs6"><clipPath
       id="clipPath26"
       clipPathUnits="userSpaceOnUse"><path
         id="path24"
         d="M 0,400.901 H 566.929 V 0 H 0 Z" /></clipPath></defs><g
     transform="matrix(1.3333333,0,0,-1.3333333,0,534.53467)"
     id="g10"><g
       transform="translate(213.3524,157.6555)"
       id="g12"><path
         id="path14"
         style="fill:#110f0d;fill-opacity:1;fill-rule:nonzero;stroke:none"
         d="M 0,0 V 6.034 H -2.269 V 7.028 H 3.374 V 6.034 H 1.104 L 1.104,0 Z" /></g><g
       transform="translate(221.2958,160.3459)"
       id="g16"><path
         id="path18"
         style="fill:#110f0d;fill-opacity:1;fill-rule:nonzero;stroke:none"
         d="M 0,0 -1.425,4.017 -2.861,0 Z M 0.964,-2.69 0.362,-0.993 H -3.223 L -3.825,-2.69 h -1.134 l 2.57,7.028 h 1.968 l 2.57,-7.028 z" /></g><g
       id="g20"><g
         clip-path="url(#clipPath26)"
         id="g22"><g
           transform="translate(226.7401,158.5285)"
           id="g28"><path
             id="path30"
             style="fill:#110f0d;fill-opacity:1;fill-rule:nonzero;stroke:none"
             d="m 0,0 c 0.833,0 1.416,0.422 1.416,1.015 0,1.656 -3.956,0.672 -3.956,3.253 0,0.572 0.241,1.044 0.713,1.425 0.472,0.371 1.055,0.563 1.757,0.563 0.693,0 1.275,-0.181 1.737,-0.532 C 2.129,5.362 2.399,4.9 2.49,4.328 L 1.365,4.097 C 1.245,4.81 0.693,5.292 -0.11,5.292 -0.863,5.292 -1.396,4.88 -1.396,4.328 -1.396,3.534 -0.411,3.404 0.582,3.113 1.266,2.892 1.878,2.701 2.27,2.119 2.46,1.828 2.561,1.467 2.561,1.045 2.561,0.462 2.31,-0.02 1.817,-0.401 1.325,-0.782 0.703,-0.974 -0.03,-0.974 c -1.476,0 -2.51,0.753 -2.681,1.928 l 1.114,0.232 C -1.476,0.433 -0.913,0 0,0" /></g><g
           transform="translate(232.2802,157.6555)"
           id="g32"><path
             id="path34"
             style="fill:#110f0d;fill-opacity:1;fill-rule:nonzero;stroke:none"
             d="M 0,0 V 6.034 H -2.269 V 7.028 H 3.374 V 6.034 H 1.104 L 1.104,0 Z" /></g><g
           transform="translate(236.5682,157.6555)"
           id="g36"><path
             id="path38"
             style="fill:#110f0d;fill-opacity:1;fill-rule:nonzero;stroke:none"
             d="M 0,0 V 7.028 H 4.498 V 6.034 H 1.114 V 4.006 H 4.397 V 3.022 H 1.114 V 0.994 H 4.498 V 0 Z" /></g><g
           transform="translate(244.745,158.5285)"
           id="g40"><path
             id="path42"
             style="fill:#110f0d;fill-opacity:1;fill-rule:nonzero;stroke:none"
             d="m 0,0 c 0.834,0 1.416,0.422 1.416,1.015 0,1.656 -3.956,0.672 -3.956,3.253 0,0.572 0.241,1.044 0.713,1.425 0.472,0.371 1.054,0.563 1.757,0.563 0.693,0 1.275,-0.181 1.737,-0.532 C 2.129,5.362 2.399,4.9 2.49,4.328 L 1.365,4.097 C 1.245,4.81 0.693,5.292 -0.11,5.292 -0.863,5.292 -1.396,4.88 -1.396,4.328 -1.396,3.534 -0.411,3.404 0.582,3.113 1.266,2.892 1.878,2.701 2.27,2.119 2.46,1.828 2.561,1.467 2.561,1.045 2.561,0.462 2.31,-0.02 1.817,-0.401 1.325,-0.782 0.703,-0.974 -0.03,-0.974 c -1.476,0 -2.51,0.753 -2.681,1.928 l 1.114,0.232 C -1.476,0.433 -0.913,0 0,0" /></g><g
           transform="translate(251.5868,157.6555)"
           id="g44"><path
             id="path46"
             style="fill:#110f0d;fill-opacity:1;fill-rule:nonzero;stroke:none"
             d="M 0,0 V 7.028 H 4.297 V 6.034 H 1.114 V 3.905 H 4.196 V 2.912 H 1.114 L 1.114,0 Z" /></g><g
           transform="translate(259.8856,161.4006)"
           id="g48"><path
             id="path50"
             style="fill:#110f0d;fill-opacity:1;fill-rule:nonzero;stroke:none"
             d="M 0,0 C 0.693,0 1.185,0.492 1.185,1.145 1.185,1.797 0.693,2.289 0,2.289 H -1.797 V 0 Z M 2.51,-3.745 H 1.175 l -1.837,2.73 h -1.135 v -2.73 H -2.911 V 3.283 H 0 c 0.693,0 1.255,-0.201 1.687,-0.602 0.432,-0.412 0.642,-0.924 0.642,-1.546 0,-1.034 -0.662,-1.858 -1.706,-2.089 z" /></g><g
           transform="translate(265.0419,159.3323)"
           id="g52"><path
             id="path54"
             style="fill:#110f0d;fill-opacity:1;fill-rule:nonzero;stroke:none"
             d="m 0,0 c 0.481,-0.502 1.084,-0.753 1.797,-0.753 0.713,0 1.315,0.251 1.797,0.753 0.482,0.492 0.722,1.104 0.722,1.837 0,0.733 -0.24,1.346 -0.722,1.848 C 3.112,4.177 2.51,4.428 1.797,4.428 1.084,4.428 0.481,4.177 0,3.685 -0.492,3.183 -0.733,2.57 -0.733,1.837 -0.733,1.104 -0.492,0.492 0,0 m -1.878,1.837 c 0,1.015 0.352,1.878 1.065,2.57 0.702,0.694 1.576,1.045 2.61,1.045 1.034,0 1.897,-0.351 2.61,-1.045 C 5.11,3.715 5.462,2.852 5.462,1.837 5.462,0.823 5.11,-0.04 4.407,-0.733 3.694,-1.426 2.831,-1.777 1.797,-1.777 c -1.034,0 -1.908,0.351 -2.61,1.044 -0.713,0.693 -1.065,1.556 -1.065,2.57" /></g><g
           transform="translate(279.2264,157.6555)"
           id="g56"><path
             id="path58"
             style="fill:#110f0d;fill-opacity:1;fill-rule:nonzero;stroke:none"
             d="M 0,0 H -1.055 V 6.787 L -2.741,0 H -4.699 L -6.386,6.787 V 0 h -1.053 v 7.028 h 2.057 l 1.667,-6.747 1.677,6.747 H 0 Z" /></g><g
           transform="translate(286.329,158.5285)"
           id="g60"><path
             id="path62"
             style="fill:#110f0d;fill-opacity:1;fill-rule:nonzero;stroke:none"
             d="m 0,0 c 0.834,0 1.416,0.422 1.416,1.015 0,1.656 -3.956,0.672 -3.956,3.253 0,0.572 0.241,1.044 0.713,1.425 0.472,0.371 1.054,0.563 1.757,0.563 0.693,0 1.275,-0.181 1.737,-0.532 C 2.129,5.362 2.399,4.9 2.49,4.328 L 1.365,4.097 C 1.245,4.81 0.693,5.292 -0.11,5.292 -0.863,5.292 -1.396,4.88 -1.396,4.328 -1.396,3.534 -0.411,3.404 0.582,3.113 1.266,2.892 1.878,2.701 2.27,2.119 2.46,1.828 2.561,1.467 2.561,1.045 2.561,0.462 2.31,-0.02 1.817,-0.401 1.325,-0.782 0.703,-0.974 -0.03,-0.974 c -1.476,0 -2.51,0.753 -2.681,1.928 l 1.114,0.232 C -1.476,0.433 -0.913,0 0,0" /></g><g
           transform="translate(291.7401,159.3323)"
           id="g64"><path
             id="path66"
             style="fill:#110f0d;fill-opacity:1;fill-rule:nonzero;stroke:none"
             d="M 0,0 C 0.481,-0.502 1.084,-0.753 1.797,-0.753 2.51,-0.753 3.112,-0.502 3.594,0 4.076,0.492 4.317,1.104 4.317,1.837 4.317,2.57 4.076,3.183 3.594,3.685 3.112,4.177 2.51,4.428 1.797,4.428 1.084,4.428 0.481,4.177 0,3.685 -0.492,3.183 -0.733,2.57 -0.733,1.837 -0.733,1.104 -0.492,0.492 0,0 m -1.878,1.837 c 0,1.015 0.352,1.878 1.065,2.57 0.702,0.694 1.576,1.045 2.61,1.045 1.034,0 1.897,-0.351 2.61,-1.045 C 5.11,3.715 5.462,2.852 5.462,1.837 5.462,0.823 5.11,-0.04 4.407,-0.733 3.694,-1.426 2.831,-1.777 1.797,-1.777 c -1.034,0 -1.908,0.351 -2.61,1.044 -0.713,0.693 -1.065,1.556 -1.065,2.57" /></g><g
           transform="translate(298.3719,164.6838)"
           id="g68"><path
             id="path70"
             style="fill:#110f0d;fill-opacity:1;fill-rule:nonzero;stroke:none"
             d="m 0,0 h 1.114 v -4.348 c 0,-0.511 0.171,-0.933 0.512,-1.264 0.342,-0.332 0.783,-0.492 1.325,-0.492 1.115,0 1.848,0.722 1.848,1.756 V 0 h 1.104 v -4.348 c 0,-0.813 -0.27,-1.486 -0.823,-1.998 -0.552,-0.522 -1.265,-0.783 -2.129,-0.783 -0.852,0 -1.565,0.261 -2.118,0.783 C 0.281,-5.823 0,-5.161 0,-4.348 Z" /></g><g
           transform="translate(307.4061,157.6555)"
           id="g72"><path
             id="path74"
             style="fill:#110f0d;fill-opacity:1;fill-rule:nonzero;stroke:none"
             d="M 0,0 V 6.034 H -2.269 V 7.028 H 3.374 V 6.034 H 1.104 L 1.104,0 Z" /></g><g
           transform="translate(311.6942,157.6555)"
           id="g76"><path
             id="path78"
             style="fill:#110f0d;fill-opacity:1;fill-rule:nonzero;stroke:none"
             d="M 0,0 V 7.028 H 1.114 V 4.006 H 4.89 V 7.028 H 5.994 V 0 H 4.89 V 3.022 H 1.114 L 1.114,0 Z" /></g><g
           transform="translate(326.5468,160.3459)"
           id="g80"><path
             id="path82"
             style="fill:#110f0d;fill-opacity:1;fill-rule:nonzero;stroke:none"
             d="M 0,0 -1.425,4.017 -2.861,0 Z M 0.964,-2.69 0.362,-0.993 H -3.223 L -3.825,-2.69 h -1.134 l 2.57,7.028 h 1.968 l 2.57,-7.028 z" /></g><g
           transform="translate(329.6093,157.6555)"
           id="g84"><path
             id="path86"
             style="fill:#110f0d;fill-opacity:1;fill-rule:nonzero;stroke:none"
             d="M 0,0 V 7.028 H 4.297 V 6.034 H 1.114 V 3.905 H 4.196 V 2.912 H 1.114 L 1.114,0 Z" /></g><g
           transform="translate(337.9081,161.4006)"
           id="g88"><path
             id="path90"
             style="fill:#110f0d;fill-opacity:1;fill-rule:nonzero;stroke:none"
             d="M 0,0 C 0.693,0 1.185,0.492 1.185,1.145 1.185,1.797 0.693,2.289 0,2.289 H -1.797 V 0 Z M 2.51,-3.745 H 1.175 l -1.837,2.73 h -1.135 v -2.73 H -2.911 V 3.283 H 0 c 0.693,0 1.255,-0.201 1.687,-0.602 0.431,-0.412 0.642,-0.924 0.642,-1.546 0,-1.034 -0.662,-1.858 -1.706,-2.089 z" /></g><path
           id="path92"
           style="fill:#110f0d;fill-opacity:1;fill-rule:nonzero;stroke:none"
           d="m 341.578,164.684 h 1.114 v -7.028 h -1.114 z" /><g
           transform="translate(343.9501,161.1692)"
           id="g94"><path
             id="path96"
             style="fill:#110f0d;fill-opacity:1;fill-rule:nonzero;stroke:none"
             d="M 0,0 C 0,1.015 0.352,1.878 1.064,2.57 1.767,3.264 2.641,3.615 3.675,3.615 4.428,3.615 5.091,3.424 5.663,3.032 6.235,2.641 6.656,2.149 6.918,1.577 L 5.894,1.175 C 5.492,2.019 4.669,2.591 3.675,2.591 2.962,2.591 2.359,2.34 1.878,1.848 1.386,1.346 1.145,0.733 1.145,0 c 0,-0.732 0.241,-1.345 0.733,-1.837 0.481,-0.502 1.084,-0.753 1.797,-0.753 0.994,0 1.817,0.572 2.219,1.416 L 6.918,-1.576 C 6.656,-2.148 6.235,-2.63 5.663,-3.021 5.091,-3.413 4.428,-3.614 3.675,-3.614 2.641,-3.614 1.767,-3.263 1.064,-2.57 0.352,-1.877 0,-1.014 0,0" /></g><g
           transform="translate(356.326,160.3459)"
           id="g98"><path
             id="path100"
             style="fill:#110f0d;fill-opacity:1;fill-rule:nonzero;stroke:none"
             d="M 0,0 -1.425,4.017 -2.861,0 Z M 0.964,-2.69 0.362,-0.993 H -3.223 L -3.825,-2.69 h -1.134 l 2.57,7.028 h 1.968 l 2.57,-7.028 z" /></g><g
           transform="translate(243.1214,192.3868)"
           id="g102"><path
             id="path104"
             style="fill:#d61d29;fill-opacity:1;fill-rule:nonzero;stroke:none"
             d="M 0,0 C 1.613,2.433 4.174,3.692 7.705,4.164 13.383,4.923 18.898,-0.384 5.925,-1.203 2.316,-1.431 0.574,-0.593 0.06,-0.28 -0.036,-0.222 -0.062,-0.094 0,0 m 167.943,-1.504 c 1.55,2.486 4.106,3.94 7.63,4.504 5.656,0.906 10.824,-4.586 -1.728,-5.635 -3.622,-0.303 -5.343,0.549 -5.841,0.862 -0.09,0.057 -0.118,0.178 -0.061,0.269 m 26.924,-3.764 c -12.292,-7.66 -31.275,-9.416 -28.926,-0.718 0.048,0.178 0.234,0.288 0.413,0.244 1.097,-0.27 4.916,-1.095 9.46,-0.724 17.059,1.394 12.883,14.662 -0.42,13.219 -7.932,-0.86 -15.025,-7.158 -14.703,-13.964 0.021,-0.43 -0.197,-0.845 -0.589,-1.024 -18.368,-8.413 -7.181,28.104 -37.936,5.517 -0.145,-0.106 -0.332,0.059 -0.237,0.211 2.99,4.748 3.63,7.264 -0.674,8.095 -2.243,0.434 -4.883,-3.105 -6.722,-7.3 -1.785,-4.073 -5.369,-7.176 -9.748,-7.943 -3.887,-0.682 -6.388,0.52 -5.824,3.417 0.822,4.214 6.202,6.667 7.424,9.545 0.902,2.127 0.174,4.585 -2.107,4.833 -1.586,0.172 -3.463,-1.148 -5.117,-3.213 -3.539,-4.414 -6.62,-6.07 -11.745,-7.56 -0.125,-0.037 -0.228,0.106 -0.148,0.209 12.683,16.22 21.255,36.279 23.329,44.346 0.666,2.591 -2.363,3.925 -4.979,2.506 -5.647,-2.484 -3.652,-9.789 -14.02,-29.958 -8.487,-16.525 -18.199,-27.136 -21.788,-25.5 -4.52,2.06 2.106,23.081 3.679,29.938 0.978,4.258 -6.533,5.236 -10.613,-3.142 C 51.585,-7.417 44.133,-13.25 40.04,-12.274 36.51,-11.433 37.012,-4.92 39.601,3.169 48.538,31.44 61.26,36.421 54.089,40.765 48.964,43.869 42.815,29.296 38.972,19.521 36.828,14.065 33.848,3.197 32.914,-0.275 c -0.2,-0.744 -0.669,-1.382 -1.307,-1.813 -11.85,-8.003 -37.853,-12.579 -33.58,-1.972 0.018,0.009 0.03,0.015 0.048,0.025 C -1.512,-4.158 2.661,-5.37 7.794,-5.084 24.884,-4.132 20.465,9.304 7.717,8.142 0.177,7.455 -5.117,2.532 -6.855,-2.581 c -0.276,-0.812 -0.847,-1.488 -1.611,-1.877 -2.706,-1.373 -7.942,-3.499 -14.602,-3.659 -0.301,-0.007 -0.241,0.195 -0.02,0.271 12.488,4.272 2.63,25.731 -11.982,12.842 -0.22,-0.194 -0.569,-0.028 -0.534,0.263 0.183,1.531 0.193,4.509 -2.497,4.533 -3.126,0.029 -3.679,-4.688 -3.686,-7.974 -0.004,-2.222 -0.856,-4.37 -2.415,-5.954 -8.824,-8.966 -11.486,-2.014 -13.789,2.092 -4.173,7.44 -11.741,-5.04 -19.065,-4.209 -5.094,0.577 1.126,11.556 11.614,11.137 4.024,-0.16 5.22,-2.52 6.839,-2.725 2.876,-0.365 7.295,5.913 -6.537,6.944 -7.428,0.553 -13.293,-3.115 -16.623,-7.493 -1.089,-1.433 -2.284,-2.781 -3.637,-3.968 -7.966,-6.993 -19.169,-11.344 -27.536,-6.488 -20.539,11.919 11.446,57.452 30.54,52.084 8.093,-2.275 2.119,-16.301 -7.069,-19.539 -0.284,-0.096 -3.131,-1.202 -1.263,-3.973 1.639,-2.431 5.706,-0.625 6.732,-0.051 9.95,4.13 16.69,24.328 3.715,28.095 -26.624,7.729 -63.375,-47.579 -36.453,-62.108 10.561,-5.7 22.659,-0.673 31.935,6.069 0.139,0.101 0.325,0.038 0.388,-0.122 0.636,-1.608 2.053,-2.727 4.381,-2.939 8.971,-0.818 13.727,7.177 15.889,6.855 2.228,-0.331 4.926,-15.036 20.471,-4.254 0.134,0.093 0.292,-0.055 0.235,-0.222 -0.121,-0.356 -0.248,-0.705 -0.381,-1.045 -0.086,-0.216 -0.174,-0.431 -0.265,-0.647 -3.664,-8.711 -11.13,-17.991 -12.193,-25.279 -0.893,-6.129 3.13,-8.058 5.274,-5.083 6.198,8.6 12.434,43.96 22.919,44.729 7.027,0.514 8.633,-11.203 -5.413,-10.285 -3.033,0.199 -3.582,-3.833 0.162,-4.461 10.344,-2.77 20,-0.222 26.253,2.703 0.115,0.054 0.236,-0.004 0.278,-0.124 2.941,-8.508 21.249,-6.998 38.243,1.104 0.278,0.132 0.584,-0.091 0.555,-0.397 -0.577,-6.055 1.336,-9.806 5.447,-10.635 10.572,-2.133 22.172,17.617 28.448,28.469 0.053,0.091 0.19,0.032 0.164,-0.07 C 65.11,6.269 63.878,1.705 62.945,-4.768 l 0.046,0.047 c -0.714,-6.355 0.154,-11.946 4.901,-13.287 3.887,-1.098 9.171,3.063 15.023,10.068 0.327,0.391 0.771,0.664 1.271,0.766 3.665,0.75 8.13,1.753 10.059,2.386 -1.007,-4.563 0.07,-8.783 5.507,-9.084 4.056,-0.224 8.288,1.625 11.915,3.581 0.267,0.144 0.593,-0.049 0.59,-0.352 -0.023,-2.141 0.617,-3.501 2.237,-3.488 1.837,0.014 2.209,2.023 4.4,4.317 6.874,7.194 17.766,13.595 23.179,3.322 5.897,-11.191 11.637,-9.508 19.631,-5.256 0.249,0.132 0.548,0.058 0.725,-0.162 4.04,-5.055 18.515,-5.351 34.362,2.677 1.066,0.54 1.631,1.827 1.165,2.928 -0.529,1.25 -2.004,1.713 -3.089,1.037" /></g><g
           transform="translate(350.079,206.121)"
           id="g106"><path
             id="path108"
             style="fill:#d61d29;fill-opacity:1;fill-rule:nonzero;stroke:none"
             d="m 0,0 c -0.399,-2.165 1.621,-3.831 3.683,-4.065 1.519,-0.172 3.089,0.535 3.488,2.7 C 7.57,0.801 6.216,2.044 4.589,2.229 2.635,2.45 0.239,1.299 0,0" /></g><g
           transform="translate(445.3845,195.8086)"
           id="g110"><path
             id="path112"
             style="fill:#d61d29;fill-opacity:1;fill-rule:nonzero;stroke:none"
             d="M 0,0 C -2.022,-1.364 -3.767,-4.887 -2.752,-6.309 -1.694,-7.79 0.305,-8.262 3.485,-5.378 6.424,-2.713 2.726,1.84 0,0" /></g></g></g></g></svg>